<svg id="github-banner-svg" width="1269" height="358" viewBox="0 0 1269 358" fill="none" xmlns="http://www.w3.org/2000/svg" class="max-w-full h-auto"><rect width="1269" height="358" fill="#0F1419"/><defs><pattern id="grid" width="40" height="40" patternUnits="userSpaceOnUse"><path d="M 40 0 L 0 0 0 40" fill="none" stroke="#1E3A3A" stroke-width="0.5" opacity="0.3"/></pattern><radialGradient id="glow" cx="50%" cy="50%" r="50%"><stop offset="0%" stop-color="#F4A261" stop-opacity="0.15"/><stop offset="100%" stop-color="#F4A261" stop-opacity="0"/></radialGradient></defs><rect width="1269" height="358" fill="url(#grid)"/><g opacity="0.15"><line x1="0" y1="89" x2="200" y2="89" stroke="#5E8B7E" stroke-width="1"/><line x1="200" y1="89" x2="200" y2="179" stroke="#5E8B7E" stroke-width="1"/><circle cx="200" cy="179" r="4" fill="#5E8B7E"/><line x1="1269" y1="269" x2="1069" y2="269" stroke="#5E8B7E" stroke-width="1"/><line x1="1069" y1="269" x2="1069" y2="179" stroke="#5E8B7E" stroke-width="1"/><circle cx="1069" cy="179" r="4" fill="#5E8B7E"/><line x1="100" y1="358" x2="100" y2="280" stroke="#5E8B7E" stroke-width="1"/><line x1="100" y1="280" x2="180" y2="280" stroke="#5E8B7E" stroke-width="1"/><line x1="1169" y1="0" x2="1169" y2="78" stroke="#5E8B7E" stroke-width="1"/><line x1="1169" y1="78" x2="1089" y2="78" stroke="#5E8B7E" stroke-width="1"/></g><ellipse cx="420" cy="179" rx="100" ry="90" fill="url(#glow)"/><g transform="translate(345 105) scale(0.30)"><g transform="matrix(1, 0, 0, 1, -5.010015, 1.175)"><path fill="#F4A261" d="M 254.94 98.905 H 354.94 V 198.905 H 254.94 Z"/><path fill="#F4A261" d="M 354.94 198.905 H 454.94 V 298.905 H 354.94 Z"/><path fill="#F4A261" d="M 354.94 98.846 H 404.94 V 198.846 H 354.94 Z"/><path fill="#F4A261" d="M 404.74 148.905 H 454.74 V 198.905 H 404.74 Z"/><path fill="#1E3A3A" d="M 63.08 98.905 H 255.08 V 198.905 H 55.08 V 106.905 A 8 8 0 0 1 63.08 98.905 Z"/><path fill="#0F1419" d="M 154.94 198.905 H 254.94 V 298.905 H 154.94 Z"/><path fill="#1E3A3A" d="M 55.08 198.905 H 205.08 V 298.905 H 63.08 A 8 8 0 0 1 55.08 290.905 Z"/><path fill="#1E3A3A" d="M 104.94 298.804 H 254.94 V 398.804 H 112.94 A 8 8 0 0 1 104.94 390.804 Z"/><path fill="#1E3A3A" d="M 254.94 298.804 H 354.94 V 398.804 H 254.94 Z"/><path fill="#1E3A3A" d="M 354.954 398.783 C 392.306 398.807 453.38 343.335 454.917 298.804 L 354.937 298.804 Z"/></g></g><text x="520" y="200" font-family="'Space Grotesk', 'SF Pro Display', system-ui, sans-serif" font-size="72" font-weight="600" fill="#F7F5F0" letter-spacing="-2">BitEvolve</text><g fill="#F4A261"><circle cx="40" cy="40" r="3"/><circle cx="1229" cy="40" r="3"/><circle cx="40" cy="318" r="3"/><circle cx="1229" cy="318" r="3"/></g></svg>
